Coordinates
version=1
nRows=24
nColumns=24
inDegrees=yes

Units are S.I. units (second, meters, Newtons, ...)
Angles are in degrees.

endheader
time	pelvis_tilt	pelvis_list	pelvis_rotation	pelvis_tx	pelvis_ty	pelvis_tz	hip_flexion_r	hip_adduction_r	hip_rotation_r	knee_angle_r	ankle_angle_r	subtalar_angle_r	mtp_angle_r	hip_flexion_l	hip_adduction_l	hip_rotation_l	knee_angle_l	ankle_angle_l	subtalar_angle_l	mtp_angle_l	lumbar_extension	lumbar_bending	lumbar_rotation
      5.84000000	    -13.18595497	      6.93169317	      5.20069080	     -0.32727714	     -0.03471332	      2.04940359	     15.82446713	    -13.00238746	    -13.83961701	    -58.12506875	    -26.18334552	     -7.51685777	     33.46922125	     29.59000021	     13.38569925	     -5.52126607	    -21.10308248	     -3.09903339	     -7.49168871	     17.61580130	     10.93168170	     -9.95597121	     -5.45068065
      5.85000000	    -13.31450094	      6.92443641	      5.19663546	     -0.31567297	     -0.03285736	      2.04879130	     17.79474795	    -12.83327368	    -12.68523040	    -59.85022861	    -24.00299006	     -8.93034174	     30.09413711	     28.55052909	     13.37882584	     -5.49165040	    -20.44893670	     -2.62854021	     -7.13808397	     18.23787126	     10.99328772	     -9.97326785	     -5.75328729
      5.86000000	    -13.16961675	      6.96044001	      5.07773751	     -0.30406341	     -0.03067354	      2.04823816	     19.43369566	    -12.62656225	    -11.46897729	    -61.18975861	    -22.07093124	     -9.92541340	     28.15887683	     27.12297869	     13.41315976	     -5.28641003	    -19.65066012	     -2.04709674	     -6.92775974	     17.66231991	     10.77373200	     -9.97413258	     -5.86684761
      5.87000000	    -13.01995580	      6.95750280	      4.95862347	     -0.29250118	     -0.02854234	      2.04753605	     21.02164414	    -12.37253043	    -10.30720260	    -62.18247752	    -20.48983497	    -10.59794422	     27.92593743	     25.64547412	     13.45483263	     -4.97712131	    -18.72439932	     -1.73290387	     -7.08415709	     17.36815192	     10.55323390	     -9.90859582	     -6.08192280
      5.88000000	    -12.88525764	      6.82151557	      4.86937830	     -0.28107907	     -0.02652845	      2.04689553	     22.59090476	    -11.94285472	     -9.29826070	    -62.93009685	    -18.72925521	    -10.98035228	     25.61697538	     24.24251754	     13.38027606	     -4.54482706	    -17.93432901	     -1.08214039	     -7.07452215	     15.47963537	     10.33816865	     -9.72274138	     -6.26852941
      5.89000000	    -12.74178486	      6.62443777	      4.88349122	     -0.26973826	     -0.02471075	      2.04600482	     24.04963901	    -11.51940928	     -8.46465010	    -63.33990689	    -17.18331427	    -10.97903911	     25.76055044	     22.84437541	     13.27566116	     -4.07495749	    -17.12820669	     -0.66124695	     -7.11837695	     15.28387536	     10.09367867	     -9.47698620	     -6.61466742
      5.90000000	    -12.55309678	      6.42279192	      4.87925473	     -0.25845644	     -0.02297334	      2.04513813	     25.39401216	    -11.08262161	     -7.71716366	    -63.45375282	    -15.59156918	    -10.84727524	     25.94812205	     21.40544786	     13.15423194	     -3.61474619	    -16.31050042	     -0.31738027	     -7.25470452	     14.89548274	      9.80161417	     -9.21787056	     -6.89426295
      5.91000000	    -12.28290598	      6.11575937	      4.97046483	     -0.24726552	     -0.02123566	      2.04411309	     26.51222101	    -10.58524669	     -7.20877284	    -63.19260469	    -14.09744038	    -10.71249166	     26.64922635	     19.92706269	     12.95237218	     -3.00697978	    -15.64102625	      0.43559536	     -7.15336000	     12.65383508	      9.39902588	     -8.85399024	     -7.26195603
      5.92000000	    -12.16040932	      5.82702669	      5.04995297	     -0.23616067	     -0.01987956	      2.04312686	     27.76345113	    -10.11772634	     -6.70444627	    -62.73303523	    -12.57096104	    -10.37308935	     27.03214349	     18.62429418	     12.73024009	     -2.63336028	    -14.89695959	      0.76868976	     -7.16117663	     12.60662609	      9.16093423	     -8.51737510	     -7.56124643
      5.93000000	    -11.84632468	      5.47285263	      5.19174018	     -0.22506684	     -0.01835920	      2.04206784	     28.65631140	     -9.62676025	     -6.41404412	    -61.89677850	    -11.29996735	    -10.13924613	     27.81534392	     17.11058263	     12.43003870	     -2.19474426	    -14.14475424	      1.08096825	     -7.13060879	     12.48014091	      8.70810891	     -8.10700917	     -7.90933305
      5.94000000	    -11.75295765	      5.10850448	      5.40747912	     -0.21412949	     -0.01733447	      2.04096112	     29.75023535	     -9.19735118	     -6.22039344	    -60.89873325	    -10.10691124	     -9.84605442	     28.22490589	     15.91921752	     12.11980849	     -1.86125721	    -13.52299848	      1.47449205	     -6.90942307	     12.53259428	      8.47598461	     -7.72015725	     -8.29426290
      5.95000000	    -11.55380328	      4.70592208	      5.66232335	     -0.20318758	     -0.01631170	      2.03977015	     30.62447012	     -8.78585553	     -6.20109314	    -59.62624543	     -9.20650878	     -9.68801729	     28.53011126	     14.60657094	     11.76285446	     -1.46529847	    -12.88161935	      1.86227165	     -6.72656828	     12.60017172	      8.13564359	     -7.27868844	     -8.70009172
      5.96000000	    -11.40030567	      4.30388099	      5.94745793	     -0.19234961	     -0.01552415	      2.03859042	     31.48694777	     -8.41791600	     -6.27491936	    -58.16529503	     -8.47766964	     -9.61564268	     28.53348948	     13.37363804	     11.40159020	     -1.03312599	    -12.27462610	      2.22974985	     -6.57828496	     12.64749202	      7.83367716	     -6.84693488	     -9.09914432
      5.97000000	    -11.24869055	      3.91322716	      6.28069688	     -0.18157695	     -0.01491801	      2.03738878	     32.26914822	     -8.11591566	     -6.46020712	    -56.52303353	     -7.82789474	     -9.56330794	     28.08996885	     12.16110866	     11.04804822	     -0.56752278	    -11.69240092	      2.60020980	     -6.43686278	     12.64265472	      7.52802827	     -6.43107605	     -9.53033517
      5.98000000	    -10.98072001	      3.59868053	      6.48458224	     -0.17080428	     -0.01438360	      2.03644520	     32.88585151	     -7.78897069	     -6.51097375	    -54.77554817	     -6.99846505	     -9.36046423	     25.63566733	     10.80020001	     10.71683434	     -0.21036967	    -11.05198860	      2.97088345	     -6.35658229	     12.35576098	      7.10384682	     -6.06295160	     -9.80852496
      5.99000000	    -10.92695664	      3.27250991	      6.81624056	     -0.16008551	     -0.01427731	      2.03543653	     33.64563973	     -7.56618951	     -6.72848969	    -52.88501753	     -6.22806887	     -9.14597052	     23.09955103	      9.72812131	     10.39306323	      0.14620524	    -10.51874745	      3.43800366	     -6.08957163	     12.14571049	      6.90504948	     -5.73091304	    -10.19608340
      6.00000000	    -10.88125780	      3.02069633	      7.07639244	     -0.14934396	     -0.01438775	      2.03457568	     34.35674823	     -7.39850752	     -6.91068087	    -50.85816471	     -5.55883437	     -8.90377731	     20.94919923	      8.65820374	     10.11580253	      0.37339718	     -9.96257389	      3.87174789	     -5.81457684	     12.07112791	      6.71819905	     -5.46623306	    -10.48587233
      6.01000000	    -10.87854358	      2.81723871	      7.31773369	     -0.13855207	     -0.01473065	      2.03379418	     35.04951552	     -7.30707620	     -7.16072205	    -48.71544132	     -4.98072545	     -8.60913098	     18.91283536	      7.63244876	      9.87451485	      0.53699840	     -9.40239222	      4.28497109	     -5.51147043	     12.11123901	      6.58716566	     -5.25535327	    -10.67257190
      6.02000000	    -10.88578558	      2.64581264	      7.51250011	     -0.12770837	     -0.01529684	      2.03313687	     35.69146738	     -7.24495601	     -7.45069162	    -46.45285376	     -4.58079164	     -8.28367345	     17.70774799	      6.62714569	      9.64879347	      0.61135012	     -8.86066989	      4.71477714	     -5.20487061	     12.21365809	      6.47092278	     -5.07335819	    -10.93293972
      6.03000000	    -11.04029338	      2.50073147	      7.75387686	     -0.11686743	     -0.01621370	      2.03246267	     36.43986798	     -7.31569920	     -7.95191723	    -44.12120239	     -4.37931620	     -7.85107395	     17.32443705	      5.81743822	      9.47159785	      0.69963636	     -8.39217715	      5.14801397	     -4.89643002	     12.30678096	      6.50903741	     -4.94688244	    -11.15021958
      6.04000000	    -11.08519734	      2.35086533	      7.90067343	     -0.10593196	     -0.01713768	      2.03201120	     37.01158265	     -7.32536592	     -8.51892395	    -41.70897004	     -4.26945060	     -7.23430617	     16.91487909	      4.89848827	      9.24519214	      0.64431977	     -7.93656079	      5.62131719	     -4.51276043	     12.39984086	      6.44234248	     -4.79227882	    -11.30757328
      6.05000000	    -11.17174594	      2.18691920	      7.98358547	     -0.09499805	     -0.01820529	      2.03174042	     37.58911738	     -7.29026086	     -9.15020058	    -39.25402602	     -4.26605018	     -6.38386384	     16.67482266	      4.07616341	      8.99496642	      0.48805542	     -7.56285482	      6.09803753	     -4.12099940	     12.48634047	      6.42226045	     -4.62708222	    -11.42096600
      6.06000000	    -11.30196437	      1.99201830	      8.03748133	     -0.08404048	     -0.01937471	      2.03164701	     38.15255444	     -7.19833797	     -9.86588738	    -36.75774344	     -4.27220169	     -5.25016481	     16.67537396	      3.35535364	      8.70372672	      0.24692566	     -7.28187017	      6.60567186	     -3.66442319	     12.58751403	      6.45162113	     -4.44436984	    -11.48236540
      6.07000000	    -11.44704664	      1.75581773	      8.03207362	     -0.07311182	     -0.02055992	      2.03173731	     38.67017536	     -6.99863684	    -10.58055618	    -34.21960964	     -4.28536179	     -3.77967594	     16.88331706	      2.70963656	      8.35650568	     -0.13422926	     -7.08836616	      7.13995468	     -3.12552594	     12.70870296	      6.49360104	     -4.21752477	    -11.52086429
